<?xml version="1.0" encoding="UTF-8" standalone="no"?>
<svg
   xmlns:dc="http://purl.org/dc/elements/1.1/"
   xmlns:cc="http://creativecommons.org/ns#"
   xmlns:rdf="http://www.w3.org/1999/02/22-rdf-syntax-ns#"
   xmlns:svg="http://www.w3.org/2000/svg"
   xmlns="http://www.w3.org/2000/svg"
   xmlns:sodipodi="http://sodipodi.sourceforge.net/DTD/sodipodi-0.dtd"
   xmlns:inkscape="http://www.inkscape.org/namespaces/inkscape"
   width="24"
   height="24"
   viewBox="0 0 24 24"
   version="1.1"
   id="svg6"
   sodipodi:docname="baseline-3d_rotation_x-24px.svg"
   inkscape:version="0.92.4 (5da689c313, 2019-01-14)">
  <metadata
     id="metadata12">
    <rdf:RDF>
      <cc:Work
         rdf:about="">
        <dc:format>image/svg+xml</dc:format>
        <dc:type
           rdf:resource="http://purl.org/dc/dcmitype/StillImage" />
        <dc:title />
      </cc:Work>
    </rdf:RDF>
  </metadata>
  <defs
     id="defs10" />
  <sodipodi:namedview
     pagecolor="#ffffff"
     bordercolor="#666666"
     borderopacity="1"
     objecttolerance="10"
     gridtolerance="10"
     guidetolerance="10"
     inkscape:pageopacity="0"
     inkscape:pageshadow="2"
     inkscape:window-width="1920"
     inkscape:window-height="966"
     id="namedview8"
     showgrid="false"
     inkscape:pagecheckerboard="true"
     inkscape:zoom="39.333333"
     inkscape:cx="4.0199003"
     inkscape:cy="6.3846079"
     inkscape:window-x="0"
     inkscape:window-y="27"
     inkscape:window-maximized="1"
     inkscape:current-layer="svg6" />
  <path
     d="M0 0h24v24H0z"
     fill="none"
     id="path2" />
  <path
     d="M 7.52,21.48 C 4.25,19.94 1.91,16.76 1.55,13 H 0.05 C 0.56,19.16 5.71,24 12,24 L 12.66,23.97 8.85,20.16 Z M 8.3382782,15.71974 C 8.1005102,15.737549 7.8919377,15.644615 7.7037008,15.579336 7.5029147,15.501 7.339776,15.409607 7.2017356,15.265989 7.0636952,15.135428 6.950753,14.978754 6.8754583,14.782912 6.8001635,14.600126 6.7625161,14.391228 6.7625161,14.169273 H 5.1311293 c 0,0.470021 0.087844,0.887818 0.2635317,1.240334 0.1756878,0.352515 0.4141213,0.652807 0.7027512,0.900873 0.3011791,0.235011 0.6400056,0.417797 1.0290286,0.535302 0.3764739,0.130561 0.7780461,0.195842 1.2047165,0.195842 0.4643178,0 0.9035373,-0.06528 1.2925603,-0.195842 0.4015724,-0.130562 0.7529474,-0.326404 1.0415774,-0.57447 0.28863,-0.248067 0.527064,-0.561414 0.690202,-0.940042 0.163139,-0.378628 0.250983,-0.796425 0.250983,-1.266446 0,-0.248066 -0.0251,-0.496133 -0.08784,-0.731144 -0.06275,-0.23501 -0.15059,-0.456965 -0.28863,-0.665863 -0.125495,-0.208898 -0.301183,-0.391684 -0.501969,-0.561414 -0.213335,-0.16973 -0.464318,-0.300291 -0.7654969,-0.40474 0.2509829,-0.117505 0.4643179,-0.261123 0.6525549,-0.430853 0.188237,-0.169729 0.338826,-0.352515 0.464317,-0.548358 0.125492,-0.195841 0.213336,-0.391683 0.276081,-0.600581 0.06275,-0.2088987 0.08784,-0.4177969 0.08784,-0.6266951 0,-0.4700211 -0.0753,-0.8878175 -0.225884,-1.2533894 C 11.066867,7.8762146 10.853532,7.5759234 10.577451,7.3409129 10.326469,7.0928462 9.9876424,6.9100602 9.6111685,6.7794989 9.2221455,6.6619936 8.7954751,6.5967129 8.3311573,6.5967129 c -0.4517687,0 -0.86589,0.065281 -1.254913,0.2088982 C 6.6997704,6.9492287 6.3609439,7.1450708 6.0848631,7.3931374 5.8213314,7.6412041 5.6079962,7.9284391 5.4448575,8.2678988 5.2942679,8.6073584 5.2189732,8.9729303 5.2189732,9.3776706 H 6.85036 c 0,-0.2219544 0.037647,-0.4177965 0.1129422,-0.5875263 C 7.0385969,8.6204145 7.13899,8.4637408 7.2770304,8.3462356 7.4150708,8.2287303 7.5656604,8.1242812 7.7538973,8.0590005 7.9421343,7.9937198 8.1303712,7.9545514 8.3562555,7.9545514 c 0.5019652,0 0.8784391,0.1305614 1.1168726,0.4047403 0.2384334,0.2611228 0.3639247,0.6397509 0.3639247,1.122828 0,0.2350105 -0.037647,0.4439088 -0.100393,0.6397513 -0.062746,0.195842 -0.1756878,0.352515 -0.3137283,0.483077 -0.1380404,0.130561 -0.3137282,0.23501 -0.5145143,0.313347 C 8.7076312,10.996631 8.456657,11.0358 8.1805677,11.0358 H 7.2142848 v 1.344782 h 0.9662829 c 0.2760716,0 0.5270635,0.02611 0.7529478,0.09139 0.2258843,0.06528 0.4141213,0.16973 0.5647108,0.300291 0.1505896,0.143618 0.2760809,0.313348 0.3639248,0.522246 0.087844,0.208898 0.1254913,0.456965 0.1254913,0.7442 0,0.535302 -0.08703,1.016313 -0.3756603,1.290492 -0.2886299,0.300291 -0.4627939,0.329801 -0.9633537,0.367293 z M 18.452084,7.9215006 C 18.091395,7.5011352 17.663075,7.1699384 17.167127,6.9406482 16.68245,6.711358 16.130143,6.5967129 15.52148,6.5967129 H 12.861393 V 16.787387 h 2.592458 c 0.619966,0 1.194784,-0.114645 1.702004,-0.343936 0.50722,-0.229289 0.946811,-0.547749 1.307501,-0.968113 0.360689,-0.420366 0.642479,-0.9299 0.834095,-1.515863 0.191616,-0.598703 0.29306,-1.265697 0.29306,-1.99992 v -0.509534 c 0,-0.740042 -0.101444,-1.401217 -0.29306,-1.9999193 C 19.094562,8.8513996 18.812774,8.3418659 18.452084,7.9215006 Z m -0.43959,4.0253154 c 0,0.535713 -0.05636,1.006329 -0.157802,1.439433 -0.112716,0.420365 -0.270518,0.789777 -0.484677,1.08276 -0.21416,0.292981 -0.484677,0.522271 -0.800281,0.675131 -0.326874,0.152861 -0.6988,0.229291 -1.115883,0.229291 H 14.428139 V 8.0234073 h 1.093341 c 0.811557,0 1.431488,0.2929819 1.848535,0.8789456 0.428319,0.5859639 0.642479,1.4316501 0.642479,2.5349291 z M 12,0 11.34,0.03 15.15,3.84 16.48,2.51 c 3.27,1.55 5.61,4.72 5.96,8.48 h 1.5 C 23.44,4.84 18.29,0 12,0 Z"
     id="path4"
     style="fill:#ffffff;fill-opacity:1"
     inkscape:connector-curvature="0"
     sodipodi:nodetypes="cccccccscccccsccscsssscccsssssccscccccsssscsssssccsscsscssssccssscsscsscscsccscsscccccccc" />
</svg>
